<svg width="447" height="811" viewBox="0 0 447 811" fill="none" xmlns="http://www.w3.org/2000/svg">
<path d="M133.05 663.531V622.071H141.75L153.21 656.871L164.73 622.071H173.43V663.531H168.63V627.171H167.73L155.91 662.031H150.57L138.75 627.171H137.85V663.531H133.05ZM189.319 664.131C186.559 664.131 184.459 663.351 183.019 661.791C181.579 660.231 180.859 657.951 180.859 654.951C180.859 652.991 181.199 651.391 181.879 650.151C182.559 648.911 183.579 647.971 184.939 647.331C186.339 646.651 188.059 646.231 190.099 646.071L199.339 645.171V642.591C199.339 640.551 198.879 639.111 197.959 638.271C197.079 637.431 195.759 637.011 193.999 637.011C192.999 637.011 191.799 637.051 190.399 637.131C189.039 637.211 187.679 637.311 186.319 637.431C184.959 637.551 183.759 637.671 182.719 637.791L182.479 634.251C183.439 634.051 184.599 633.851 185.959 633.651C187.319 633.451 188.739 633.291 190.219 633.171C191.699 633.011 193.059 632.931 194.299 632.931C196.579 632.931 198.439 633.291 199.879 634.011C201.319 634.691 202.359 635.751 202.999 637.191C203.679 638.591 204.019 640.391 204.019 642.591V657.771C204.099 658.651 204.439 659.291 205.039 659.691C205.679 660.091 206.479 660.351 207.439 660.471L207.259 664.131C206.699 664.131 206.159 664.111 205.639 664.071C205.119 664.031 204.619 663.951 204.139 663.831C203.699 663.751 203.259 663.651 202.819 663.531C202.299 663.331 201.799 663.091 201.319 662.811C200.879 662.531 200.439 662.191 199.999 661.791C199.239 662.111 198.259 662.451 197.059 662.811C195.899 663.171 194.639 663.471 193.279 663.711C191.959 663.991 190.639 664.131 189.319 664.131ZM190.099 660.231C191.179 660.231 192.299 660.131 193.459 659.931C194.619 659.731 195.719 659.491 196.759 659.211C197.799 658.931 198.659 658.671 199.339 658.431V648.651L190.639 649.491C188.839 649.651 187.539 650.171 186.739 651.051C185.979 651.931 185.599 653.191 185.599 654.831C185.599 656.511 185.979 657.831 186.739 658.791C187.499 659.751 188.619 660.231 190.099 660.231ZM222.256 664.131C221.336 664.131 220.216 664.071 218.896 663.951C217.616 663.831 216.336 663.691 215.056 663.531C213.776 663.331 212.636 663.151 211.636 662.991L211.876 658.971C212.876 659.091 213.996 659.231 215.236 659.391C216.516 659.551 217.756 659.691 218.956 659.811C220.156 659.891 221.116 659.931 221.836 659.931C223.476 659.931 224.836 659.791 225.916 659.511C226.996 659.191 227.816 658.671 228.376 657.951C228.936 657.231 229.216 656.211 229.216 654.891C229.216 653.891 228.996 653.111 228.556 652.551C228.156 651.991 227.376 651.531 226.216 651.171C225.096 650.811 223.456 650.471 221.296 650.151C219.056 649.791 217.176 649.351 215.656 648.831C214.176 648.271 213.076 647.451 212.356 646.371C211.636 645.291 211.276 643.751 211.276 641.751C211.276 639.511 211.796 637.751 212.836 636.471C213.876 635.191 215.216 634.291 216.856 633.771C218.536 633.211 220.276 632.931 222.076 632.931C223.196 632.931 224.416 632.991 225.736 633.111C227.096 633.231 228.416 633.391 229.696 633.591C230.976 633.751 232.076 633.911 232.996 634.071L232.876 638.091C231.916 637.931 230.796 637.791 229.516 637.671C228.236 637.511 226.956 637.391 225.676 637.311C224.396 637.191 223.276 637.131 222.316 637.131C221.116 637.131 220.036 637.271 219.076 637.551C218.116 637.791 217.356 638.231 216.796 638.871C216.236 639.511 215.956 640.411 215.956 641.571C215.956 642.451 216.156 643.171 216.556 643.731C216.956 644.251 217.716 644.691 218.836 645.051C219.956 645.411 221.576 645.771 223.696 646.131C226.176 646.531 228.156 647.031 229.636 647.631C231.156 648.231 232.256 649.071 232.936 650.151C233.616 651.231 233.956 652.751 233.956 654.711C233.956 657.031 233.476 658.891 232.516 660.291C231.596 661.651 230.256 662.631 228.496 663.231C226.776 663.831 224.696 664.131 222.256 664.131ZM250.325 664.131C249.125 664.131 247.985 663.991 246.905 663.711C245.825 663.471 244.825 663.031 243.905 662.391C243.025 661.751 242.245 660.871 241.565 659.751C240.885 658.591 240.365 657.111 240.005 655.311C239.645 653.511 239.465 651.331 239.465 648.771C239.465 645.211 239.885 642.271 240.725 639.951C241.565 637.591 242.905 635.831 244.745 634.671C246.585 633.511 249.025 632.931 252.065 632.931C252.825 632.931 253.665 632.971 254.585 633.051C255.505 633.131 256.385 633.231 257.225 633.351C258.105 633.471 258.805 633.591 259.325 633.711V620.511H264.005V663.531H259.385V661.551C258.745 661.911 257.905 662.291 256.865 662.691C255.865 663.091 254.785 663.431 253.625 663.711C252.505 663.991 251.405 664.131 250.325 664.131ZM250.925 659.931C251.965 659.931 253.005 659.811 254.045 659.571C255.125 659.331 256.125 659.051 257.045 658.731C257.965 658.371 258.725 658.051 259.325 657.771V637.671C258.845 637.591 258.185 637.511 257.345 637.431C256.505 637.311 255.625 637.211 254.705 637.131C253.825 637.051 253.025 637.011 252.305 637.011C250.265 637.011 248.665 637.451 247.505 638.331C246.345 639.211 245.505 640.531 244.985 642.291C244.505 644.011 244.265 646.171 244.265 648.771C244.265 651.171 244.445 653.111 244.805 654.591C245.165 656.031 245.645 657.151 246.245 657.951C246.885 658.711 247.605 659.231 248.405 659.511C249.205 659.791 250.045 659.931 250.925 659.931ZM279.202 664.131C276.442 664.131 274.342 663.351 272.902 661.791C271.462 660.231 270.742 657.951 270.742 654.951C270.742 652.991 271.082 651.391 271.762 650.151C272.442 648.911 273.462 647.971 274.822 647.331C276.222 646.651 277.942 646.231 279.982 646.071L289.222 645.171V642.591C289.222 640.551 288.762 639.111 287.842 638.271C286.962 637.431 285.642 637.011 283.882 637.011C282.882 637.011 281.682 637.051 280.282 637.131C278.922 637.211 277.562 637.311 276.202 637.431C274.842 637.551 273.642 637.671 272.602 637.791L272.362 634.251C273.322 634.051 274.482 633.851 275.842 633.651C277.202 633.451 278.622 633.291 280.102 633.171C281.582 633.011 282.942 632.931 284.182 632.931C286.462 632.931 288.322 633.291 289.762 634.011C291.202 634.691 292.242 635.751 292.882 637.191C293.562 638.591 293.902 640.391 293.902 642.591V657.771C293.982 658.651 294.322 659.291 294.922 659.691C295.562 660.091 296.362 660.351 297.322 660.471L297.142 664.131C296.582 664.131 296.042 664.111 295.522 664.071C295.002 664.031 294.502 663.951 294.022 663.831C293.582 663.751 293.142 663.651 292.702 663.531C292.182 663.331 291.682 663.091 291.202 662.811C290.762 662.531 290.322 662.191 289.882 661.791C289.122 662.111 288.142 662.451 286.942 662.811C285.782 663.171 284.522 663.471 283.162 663.711C281.842 663.991 280.522 664.131 279.202 664.131ZM279.982 660.231C281.062 660.231 282.182 660.131 283.342 659.931C284.502 659.731 285.602 659.491 286.642 659.211C287.682 658.931 288.542 658.671 289.222 658.431V648.651L280.522 649.491C278.722 649.651 277.422 650.171 276.622 651.051C275.862 651.931 275.482 653.191 275.482 654.831C275.482 656.511 275.862 657.831 276.622 658.791C277.382 659.751 278.502 660.231 279.982 660.231ZM302.779 663.531V633.531H307.399V637.551C308.159 637.031 309.119 636.471 310.279 635.871C311.439 635.231 312.719 634.631 314.119 634.071C315.519 633.511 316.919 633.111 318.319 632.871V637.611C316.959 637.891 315.579 638.271 314.179 638.751C312.779 639.191 311.479 639.671 310.279 640.191C309.119 640.711 308.159 641.171 307.399 641.571V663.531H302.779Z" fill="white"/>
<path d="M439.41 310.123C439.608 311.258 438.034 313.826 437.594 314.96C436.09 318.819 434.53 322.663 432.97 326.535C431.423 330.38 429.863 334.224 428.26 338.068C428.288 337.997 426.104 342.224 426.217 342.806C422.6 322.124 411.309 302.804 393.109 291.739C383.293 285.781 372.073 282.717 360.611 281.866C356.696 281.568 352.767 281.526 348.851 281.724C342.369 282.022 335.957 282.93 329.787 284.363C288.99 293.725 256.364 327.841 237.427 364.226C237.413 364.268 237.398 364.311 237.384 364.353C235.838 369.687 234.547 375.091 233.497 380.524C231.384 391.518 230.277 402.724 230.207 413.916C230.065 436.57 234.15 459.38 243.186 480.218C257.896 514.135 289.189 549.711 328.311 552.633C372.995 555.952 409.72 520.404 428.728 483.395C423.395 493.779 420.884 505.652 415.536 516.064C393.024 559.868 342.922 601.827 291.231 579.358C253.116 562.79 227.852 520.277 220.178 481.026C210.234 430.158 226.15 380.07 248.945 334.834C267.542 297.881 300.338 261.851 341.872 251.95C345.206 251.141 348.61 250.531 352.057 250.077C355.462 249.623 358.894 249.326 362.313 249.184C379.662 248.46 397.01 251.879 411.337 262.475C426.714 273.823 436.147 291.498 439.41 310.123Z" fill="white"/>
<path d="M439.58 311.797C436.984 317.528 434.388 323.245 431.792 328.975C430.827 331.117 425.976 344.778 423.366 343.756C422.799 343.529 420.146 339.586 419.564 339.019C417.579 337.104 415.224 335.586 412.826 334.267C408.684 331.997 404.174 330.38 399.592 329.231C376.47 323.429 352.866 330.323 330.311 335.401C309.289 340.125 286.082 343.643 265.797 334.139C248.562 326.053 236.178 307.031 241.526 287.81C238.405 299.016 231.455 309.201 228.334 320.479C223.809 336.763 232.164 353.7 245.768 362.963C261.442 373.63 281.784 374.127 299.898 371.418C320.779 368.311 340.95 360.949 362.143 359.871C378.555 359.034 402.755 361.644 411.082 378.255C411.181 378.07 411.266 377.872 411.365 377.687C416.557 366.24 421.749 354.793 426.955 343.331C431.31 333.699 436.147 319.386 439.58 311.797Z" fill="white"/>
<path d="M171.693 396.114C168.175 419.434 191.58 432.286 211.666 432.612C223.61 432.811 235.583 430.683 247.399 429.194C260.733 427.52 274.067 425.846 287.401 424.186C312.566 421.037 337.957 416.555 363.263 414.867C380.981 413.675 403.89 417.207 417.72 429.392C426.572 437.18 430.828 448.5 431.125 460.117C431.253 465.025 430.742 469.919 429.778 474.728C429.381 476.742 428.898 478.742 428.331 480.714C428.146 481.367 427.948 482.005 427.764 482.658C427.537 483.381 427.295 484.09 427.04 484.8C423.423 495.027 427.253 485.622 438.502 456.585C434.161 466.529 428.955 481.069 425.551 488.913C433.523 470.6 444.204 450.103 444.672 429.562C444.928 418.385 441.849 407.15 434.161 398.766C427.012 390.965 417.068 386.993 407.011 384.482C381.804 378.184 356.582 383.759 331.29 386.922C302.026 390.582 272.79 394.44 243.512 397.915C229.724 399.547 214.319 400.809 201.765 393.631C190.786 387.347 183.296 375.488 185.239 362.651C184.445 367.956 180.331 374.325 178.303 379.318C176.175 384.539 172.544 390.482 171.693 396.114Z" fill="white"/>
<path d="M425.395 483.75C422.189 493.58 418.997 503.396 415.791 513.227C421.097 500.148 426.402 487.069 431.707 474.005C436.658 457.096 417.323 447.748 404.018 444.656C386.357 440.556 367.675 439.535 349.589 439.365C312.807 439.01 276.266 444.074 239.98 449.535C202.503 455.167 164.983 461.352 127.052 462.855C95.731 464.089 58.963 463.38 35.9263 438.769C7.8538 408.753 15.9252 366.807 24.7484 330.749C23.1171 337.387 19.0459 344.281 16.4784 350.65C13.8541 357.161 10.2795 363.857 8.6056 370.708C0.548418 403.618 -7.32435 440.584 13.3151 470.657C32.4084 498.46 66.6514 503.354 98.0007 503.127C172.828 502.588 245.683 481.154 320.439 479.409C341.021 478.927 361.902 479.792 382.201 483.452C396.585 486.048 421.238 494.545 415.564 513.95C419.494 500.545 427.125 488.062 431.48 474.728C434.686 464.898 437.878 455.082 441.084 445.251C441.935 442.641 439.608 448.358 440.119 447.209C438.403 451.138 436.814 455.138 435.197 459.11C431.877 467.253 428.118 475.395 425.395 483.75Z" fill="white"/>
<path d="M312.438 203.72C289.302 186.06 258.407 203.337 244.434 222.771C226.008 248.375 217.823 279.171 203.709 306.605C191.637 330.053 173.82 356.792 143.833 364.069C115.746 370.878 87.3758 355.885 73.3325 335.118C63.9419 321.23 59.8282 304.775 59.3459 288.533C59.1615 282.136 59.5303 275.738 60.2963 269.355C61.6155 258.276 70.9352 229.693 58.1118 267.227C60.807 259.34 63.7291 251.453 65.9846 243.453C66.1832 242.729 67.4173 240.602 66.4243 241.666C64.8639 243.325 64.2823 247.737 63.644 249.609C53.842 278.277 44.0826 306.974 49.0332 336.947C53.6718 364.992 72.8644 392.397 105.533 399.149C137.818 405.831 164.174 385.078 180.104 361.828C199.141 334.054 208.276 302.18 223.539 272.873C230.859 258.83 240.661 244.12 256.52 236.488C270.634 229.693 288.536 229.041 300.849 238.431C300.012 237.793 306.31 222.728 306.849 221.125C307.416 219.31 313.871 204.812 312.438 203.72Z" fill="#D3AC28"/>
<path d="M387.548 167.307C344.198 134.156 290.536 115.573 252.661 75.2024C233.213 54.492 218.872 28.9162 217.525 0.0776712C217.525 0.063486 217.525 0.0493164 217.525 0.0493164C217.525 0.0493164 184.161 53.1019 171.38 99.3598C171.366 99.4023 171.366 99.4307 171.352 99.4874C170.047 102.991 168.869 106.523 167.848 110.07C163.834 123.9 164.273 138.17 171.706 150.767C176.813 159.392 182.984 167.25 187.736 176.13C193.694 187.251 198.346 199.096 201.666 211.281C202.886 215.749 203.935 220.26 204.786 224.814C205.396 228.005 205.254 228.119 207.099 225.097C208.475 222.856 209.779 220.572 211.028 218.246C213.397 213.792 215.553 209.196 217.581 204.557L225.213 187.89L228.447 180.839L228.461 180.797C230.731 175.321 232.646 169.633 234.774 164.285C237.426 157.59 240.334 151.292 239.951 143.915C239.157 128.439 228.476 116.751 219.042 105.474C209.496 94.0829 202.432 81.9546 200.417 67.0176C199.609 60.9889 199.609 54.8467 200.375 48.8179C202.162 45.5128 203.41 41.4842 204.659 37.8386C204.673 37.8386 204.673 37.8244 204.673 37.8244C204.673 37.8102 204.687 37.8103 204.687 37.7961C209.524 87.5861 250.959 123.744 291.202 148.54C336.737 176.612 389.719 199.294 417.522 247.751C431.324 271.823 437.849 300.69 428.458 327.458C431.451 319.457 437.466 306.478 440.984 296.747C459.07 246.829 426.061 196.755 387.548 167.307ZM207.453 139.887C208.687 141.39 209.95 142.922 211.212 144.44L211.226 144.454C211.496 144.781 211.78 145.135 212.078 145.476C216.574 150.951 220.816 157.008 223.568 163.505C223.568 163.519 223.568 163.519 223.582 163.534C223.752 164.087 223.908 164.668 224.064 165.236C225.341 170.144 225.553 175.151 224.929 180.144C223.922 185.123 221.085 190.982 219.567 193.89C219.553 193.904 219.553 193.918 219.539 193.932C219.255 194.471 219.028 194.911 218.858 195.209C218.844 195.237 218.83 195.266 218.816 195.28C218.759 195.379 218.716 195.493 218.659 195.564C218.617 195.635 218.589 195.691 218.589 195.691L216.56 190.216C215.851 186.925 215.581 183.123 214.844 180.371C211.737 168.711 207.411 157.363 201.907 146.625C194.133 131.532 180.374 118.212 178.402 100.722C178.274 99.5868 178.189 98.4519 178.161 97.3029C178.161 97.3029 181.821 86.2952 186.984 73.3299C188.559 69.3865 190.261 65.2586 192.048 61.2016C193.367 58.2227 194.701 55.3006 196.077 52.5203C194.105 57.4284 192.19 62.3648 190.502 67.3438C186.062 80.4225 185.367 94.6219 188.899 107.984C192.19 120.581 199.509 130.227 207.453 139.887Z" fill="white"/>
<path d="M157.337 202.755V235.325H124.91C124.91 235.282 124.91 235.239 124.91 235.183C124.91 217.281 139.436 202.755 157.337 202.755Z" fill="white"/>
<path d="M157.337 176.059V191.62C133.321 191.62 113.788 211.153 113.788 235.169C113.788 235.211 113.788 235.254 113.788 235.311H98.2129C98.2129 235.268 98.2129 235.226 98.2129 235.169C98.2271 202.585 124.739 176.059 157.337 176.059Z" fill="white"/>
<path d="M157.337 150.469V166.03C119.207 166.03 88.1842 197.053 88.1842 235.183C88.1842 235.225 88.1842 235.268 88.1842 235.325H72.623C72.623 235.282 72.623 235.239 72.623 235.183C72.623 188.471 110.625 150.469 157.337 150.469Z" fill="white"/>
<path d="M157.337 124.127V139.688C104.682 139.688 61.8424 182.527 61.8424 235.183C61.8424 235.225 61.8424 235.268 61.8424 235.325H46.2812C46.2812 235.282 46.2812 235.239 46.2812 235.183C46.2812 173.945 96.0996 124.127 157.337 124.127Z" fill="white"/>
<path d="M157.337 235.226L154.812 521.525L154.798 521.511C154.656 521.327 154.486 521.142 154.315 520.972L154.301 520.958L151.776 235.226" fill="#D3AC28"/>
<path d="M142.74 530.59C142.485 535.186 140.669 539.385 137.804 542.619C138.045 538.278 139.719 534.023 142.74 530.59Z" fill="#D3AC28"/>
<path d="M142.698 527.937C138.84 531.54 136.627 536.292 136.059 541.214C135.96 540.505 135.932 539.81 135.932 539.087C135.932 533.512 138.386 528.519 142.258 525.114C142.485 526.036 142.613 526.973 142.698 527.937Z" fill="#D3AC28"/>
<path d="M144.429 526.462C144.301 525.582 144.117 524.703 143.861 523.838C145.053 523.001 146.344 522.292 147.72 521.738C148.074 522.433 148.386 523.157 148.67 523.909C147.195 524.575 145.776 525.426 144.429 526.462Z" fill="#D3AC28"/>
<path d="M139.322 543.739C138.825 545.186 138.499 546.676 138.329 548.193C138.3 548.179 138.286 548.151 138.286 548.137V548.122C137.861 547.385 137.506 546.647 137.208 545.853C137.407 545.668 137.634 545.484 137.832 545.271C138.357 544.803 138.854 544.292 139.322 543.739Z" fill="#D3AC28"/>
<path d="M140.286 547.626C140.953 543.172 143.123 538.931 146.755 535.739C147.677 534.931 148.627 534.221 149.634 533.611C148.74 539.555 145.223 544.633 140.286 547.626Z" fill="#D3AC28"/>
<path d="M143.521 536.377C144.23 534.221 144.627 531.923 144.627 529.54C144.627 529.285 144.627 529.001 144.613 528.731C146.031 527.497 147.592 526.49 149.237 525.738C149.634 527.327 149.861 528.987 149.861 530.689C149.861 530.916 149.861 531.143 149.847 531.356C148.329 532.136 146.897 533.129 145.549 534.335C144.797 534.973 144.13 535.668 143.521 536.377Z" fill="#D3AC28"/>
<path d="M154.812 521.525L154.798 522.206H154.784C154.628 522.206 154.486 522.22 154.33 522.263H154.316C152.996 522.447 151.691 522.788 150.401 523.213C150.131 522.518 149.847 521.823 149.507 521.157C150.911 520.759 152.372 520.532 153.89 520.476C154.032 520.632 154.174 520.788 154.301 520.958L154.316 520.972C154.486 521.142 154.656 521.327 154.798 521.511L154.812 521.525Z" fill="#D3AC28"/>
<path d="M155.28 522.121C155.124 522.15 154.968 522.164 154.798 522.206L154.812 521.525C154.982 521.724 155.138 521.923 155.28 522.121Z" fill="#D3AC28"/>
<path d="M159.252 522.064C158.713 522.007 158.146 521.993 157.607 521.993H157.493C157.153 521.483 156.826 521.014 156.443 520.546C156.798 520.589 157.167 520.617 157.521 520.674H157.536C158.146 521.128 158.713 521.568 159.252 522.064Z" fill="#D3AC28"/>
<path d="M163.763 522.887C163.295 522.731 162.827 522.632 162.359 522.532C162.175 522.334 161.99 522.107 161.777 521.894C162.458 522.192 163.125 522.518 163.763 522.887Z" fill="#D3AC28"/>
<path d="M158.628 528.93C157.309 529.015 156.018 529.199 154.727 529.526H154.713C154.614 529.554 154.515 529.568 154.401 529.611H154.387C153.479 529.838 152.6 530.15 151.72 530.504C151.692 528.604 151.436 526.759 150.954 525C152.046 524.617 153.181 524.32 154.33 524.149H154.344C154.486 524.107 154.628 524.093 154.77 524.093H154.784C155.337 523.979 155.905 523.937 156.486 523.908C157.423 525.454 158.146 527.142 158.628 528.93Z" fill="#D3AC28"/>
<path d="M164.486 529.398C163.196 529.1 161.862 528.944 160.543 528.916C160.132 527.157 159.479 525.469 158.656 523.908H158.827C159.692 523.965 160.529 524.078 161.366 524.22C162.656 525.767 163.72 527.511 164.486 529.398Z" fill="#D3AC28"/>
<path d="M172.005 532.575C170.359 531.469 168.558 530.589 166.714 529.994C166.118 528.221 165.295 526.547 164.26 525.015C166.019 525.61 167.707 526.49 169.21 527.611H169.225C170.402 529.1 171.338 530.76 172.005 532.575Z" fill="#D3AC28"/>
<path d="M154.316 551.144C156.954 548.803 160.089 547.229 163.465 546.548C160.742 551.527 155.876 555.187 150.117 556.378C151.181 554.449 152.585 552.676 154.316 551.144Z" fill="#D3AC28"/>
<path d="M145.01 555.073C146.811 554.591 148.485 553.896 150.06 553.031C149.223 554.137 148.528 555.272 147.932 556.492C146.896 556.095 145.918 555.641 145.01 555.073Z" fill="#D3AC28"/>
<path d="M158.103 540.888C155.961 546.775 151.082 551.357 144.996 553.13C146.088 550.123 147.918 547.328 150.486 545.073C151.72 543.966 153.082 543.044 154.514 542.321C154.529 542.321 154.529 542.307 154.543 542.307C154.557 542.293 154.557 542.292 154.571 542.264C154.585 542.264 154.585 542.25 154.599 542.25C155.734 541.668 156.912 541.214 158.103 540.888Z" fill="#D3AC28"/>
<path d="M165.706 540.221C165.465 541.711 165.039 543.143 164.472 544.505C161.777 544.86 159.195 545.725 156.826 547.073C158.344 545.087 159.507 542.831 160.245 540.392C162.061 540.08 163.89 540.023 165.706 540.221Z" fill="#D3AC28"/>
<path d="M168.657 546.208C169.65 546.264 170.643 546.392 171.593 546.605C168.714 553.144 162.174 557.712 154.557 557.712C153.933 557.712 153.337 557.669 152.741 557.612C158.486 555.783 163.21 551.598 165.777 546.208C166.316 546.165 166.884 546.151 167.423 546.151C167.834 546.151 168.246 546.165 168.657 546.208Z" fill="#D3AC28"/>
<path d="M172.884 542.392C172.728 543.228 172.53 544.037 172.246 544.817C171.125 544.576 169.962 544.406 168.785 544.335C168.033 544.278 167.309 544.278 166.558 544.321C167.012 543.101 167.338 541.81 167.551 540.505C169.409 540.874 171.21 541.498 172.884 542.392Z" fill="#D3AC28"/>
<path d="M165.224 531.497C165.734 533.242 165.99 535.044 165.99 536.944C165.99 537.427 165.976 537.923 165.933 538.391C165.167 538.292 164.387 538.264 163.621 538.264C162.67 538.264 161.692 538.32 160.741 538.448C161.039 537.029 161.195 535.583 161.195 534.093C161.195 532.973 161.096 531.88 160.954 530.802C162.373 530.873 163.819 531.1 165.224 531.497Z" fill="#D3AC28"/>
<path d="M173.182 539.086C173.182 539.54 173.168 539.98 173.125 540.434C171.409 539.597 169.607 539.015 167.777 538.661C167.834 538.093 167.848 537.526 167.848 536.944C167.848 535.313 167.664 533.753 167.323 532.207C169.281 533.015 171.153 534.136 172.841 535.597C173.068 536.732 173.182 537.881 173.182 539.086Z" fill="#D3AC28"/>
<path d="M142.868 553.598V553.612C142.868 553.612 142.882 553.612 142.911 553.612C142.897 553.598 142.868 553.598 142.868 553.598Z" fill="#020203"/>
<path d="M144.996 553.13C144.798 553.669 144.628 554.222 144.471 554.761C143.932 554.406 143.408 554.009 142.911 553.612C143.62 553.484 144.33 553.343 144.996 553.13Z" fill="#D3AC28"/>
<path d="M138.329 548.193V548.264C138.3 548.42 138.286 548.548 138.286 548.704C138.329 548.676 138.357 548.661 138.4 548.647C138.456 548.619 138.499 548.605 138.556 548.562C138.456 548.463 138.385 548.321 138.329 548.193Z" fill="#020203"/>
<path d="M159.309 534.079C159.309 535.696 159.124 537.271 158.741 538.789C157.323 539.101 155.961 539.569 154.613 540.179V540.193H154.599C154.571 540.207 154.543 540.221 154.514 540.25H154.5V540.264C152.642 541.087 150.869 542.25 149.251 543.668C146.145 546.42 143.989 549.881 142.868 553.584C141.847 552.761 140.882 551.796 140.059 550.775V550.761C139.889 550.562 139.733 550.364 139.577 550.151C139.747 550.08 139.918 549.995 140.088 549.895C146.457 546.548 150.982 540.122 151.62 532.575C152.542 532.15 153.464 531.795 154.415 531.526H154.429C154.514 531.512 154.599 531.483 154.684 531.455H154.699C156.117 531.072 157.564 530.845 159.025 530.788C159.209 531.852 159.309 532.958 159.309 534.079Z" fill="#D3AC28"/>
<path d="M138.329 548.265C138.3 548.421 138.286 548.548 138.286 548.704C138.329 548.676 138.357 548.662 138.4 548.648C138.357 548.506 138.343 548.407 138.329 548.265Z" fill="#020203"/>
<path d="M160.491 748.132C160.015 748.132 159.521 748.096 159.009 748.023C158.46 747.986 157.929 747.949 157.417 747.913L157.911 744.015C158.423 744.052 158.899 744.088 159.338 744.125C159.777 744.198 160.161 744.235 160.491 744.235C162.211 744.235 163.602 743.576 164.663 742.258C165.724 740.977 166.255 739.184 166.255 736.878V708.551H170.537V736.878C170.537 739.111 170.098 741.069 169.22 742.752C168.378 744.473 167.207 745.79 165.706 746.705C164.206 747.657 162.467 748.132 160.491 748.132ZM197.86 736V732.102H203.789V736H197.86ZM176.614 736V732.102H197.091L193.578 735.231V723.264C193.578 720.555 193.267 718.414 192.644 716.841C192.022 715.267 190.997 714.151 189.57 713.492C188.179 712.796 186.295 712.449 183.916 712.449H179.469V708.551H183.916C186.844 708.551 189.351 709.008 191.437 709.923C193.523 710.838 195.115 712.376 196.213 714.535C197.311 716.658 197.86 719.567 197.86 723.264V736H176.614ZM203.789 736V732.102C204.008 732.102 204.191 732.157 204.338 732.267C204.484 732.34 204.594 732.468 204.667 732.651C204.74 732.798 204.795 732.999 204.832 733.255C204.868 733.475 204.887 733.731 204.887 734.024C204.887 734.316 204.868 734.591 204.832 734.847C204.795 735.103 204.74 735.323 204.667 735.506C204.594 735.652 204.484 735.78 204.338 735.89C204.191 735.963 204.008 736 203.789 736ZM244.696 736V732.102H250.625V736H244.696ZM203.797 736C203.578 736 203.395 735.963 203.248 735.89C203.102 735.78 202.992 735.652 202.919 735.506C202.846 735.323 202.791 735.103 202.754 734.847C202.718 734.591 202.699 734.316 202.699 734.024C202.699 733.621 202.736 733.292 202.809 733.036C202.846 732.743 202.956 732.523 203.139 732.377C203.285 732.194 203.505 732.102 203.797 732.102V736ZM203.797 736V732.102H244.367L240.414 735.671V722.77C240.414 720.464 240.085 718.561 239.426 717.06C238.804 715.523 237.852 714.37 236.571 713.602C235.327 712.833 233.753 712.449 231.85 712.449C230.24 712.449 228.739 712.723 227.349 713.272C225.994 713.785 224.732 714.48 223.561 715.358C222.389 716.2 221.292 717.152 220.267 718.213C219.279 719.238 218.364 720.281 217.522 721.342C216.68 722.404 215.911 723.373 215.216 724.252L213.844 720.354C214.759 719.219 215.674 718.085 216.589 716.95C217.54 715.816 218.528 714.754 219.553 713.766C220.578 712.742 221.694 711.845 222.902 711.076C224.146 710.308 225.5 709.704 226.964 709.265C228.428 708.789 230.075 708.551 231.905 708.551C234.504 708.551 236.626 708.99 238.273 709.869C239.957 710.747 241.256 711.918 242.171 713.382C243.123 714.809 243.781 716.346 244.147 717.993C244.513 719.64 244.696 721.232 244.696 722.77V736H203.797ZM211.593 732.102V708.551H215.875V732.102H211.593ZM250.625 736V732.102C250.845 732.102 251.028 732.157 251.174 732.267C251.321 732.34 251.431 732.468 251.504 732.651C251.577 732.798 251.632 732.999 251.668 733.255C251.705 733.475 251.723 733.731 251.723 734.024C251.723 734.316 251.705 734.591 251.668 734.847C251.632 735.103 251.577 735.323 251.504 735.506C251.431 735.652 251.321 735.78 251.174 735.89C251.028 735.963 250.845 736 250.625 736ZM250.6 736V732.102H280.629L277.445 734.353V722.55C277.445 719.988 277.152 717.975 276.567 716.511C275.981 715.047 274.975 714.004 273.548 713.382C272.157 712.76 270.254 712.449 267.838 712.449C266.301 712.449 264.764 712.559 263.227 712.778C261.726 712.998 260.555 713.29 259.713 713.656L262.293 711.021C262.074 711.9 261.854 713.016 261.635 714.37C261.415 715.688 261.232 717.115 261.086 718.652C260.939 720.189 260.866 721.726 260.866 723.264C260.866 724.837 260.939 726.375 261.086 727.875C261.232 729.376 261.397 730.675 261.58 731.773C261.763 732.871 261.909 733.639 262.019 734.079L257.956 735.231C257.81 734.756 257.627 733.932 257.407 732.761C257.224 731.59 257.041 730.181 256.858 728.534C256.712 726.887 256.639 725.13 256.639 723.264C256.639 721.47 256.712 719.732 256.858 718.048C257.041 716.328 257.243 714.773 257.462 713.382C257.719 711.991 257.956 710.875 258.176 710.033C258.981 709.704 260.262 709.374 262.019 709.045C263.776 708.716 265.715 708.551 267.838 708.551C270.912 708.551 273.474 709.008 275.524 709.923C277.61 710.838 279.165 712.321 280.19 714.37C281.215 716.383 281.727 719.11 281.727 722.55V736H250.6ZM250.6 736C250.381 736 250.198 735.963 250.051 735.89C249.905 735.78 249.795 735.652 249.722 735.506C249.649 735.323 249.594 735.103 249.557 734.847C249.52 734.591 249.502 734.316 249.502 734.024C249.502 733.621 249.539 733.292 249.612 733.036C249.649 732.743 249.758 732.523 249.941 732.377C250.088 732.194 250.307 732.102 250.6 732.102V736Z" fill="#D3AC28"/>
</svg>
